<svg width="512" height="512" viewBox="0 0 512 512" fill="none" xmlns="http://www.w3.org/2000/svg">
<g clip-path="url(#clip0_1193_102598)">
<path d="M256 512C397.385 512 512 397.385 512 256C512 114.615 397.385 0 256 0C114.615 0 0 114.615 0 256C0 397.385 114.615 512 256 512Z" fill="#D80027"/>
<path d="M282.428 193.668C276.61 217.867 266.273 213.252 261.2 234.356C231.317 227.171 212.913 197.121 220.098 167.236C227.28 137.353 257.333 118.949 287.217 126.134C277.07 168.341 287.633 172.025 282.428 193.668Z" fill="#FFFDF3"/>
<path d="M204.886 211.6C226.103 224.61 218.519 233.017 237.021 244.364C220.953 270.565 186.688 278.78 160.486 262.713C134.285 246.646 126.068 212.379 142.136 186.178C179.142 208.87 185.907 199.963 204.886 211.6V211.6Z" fill="#FFFDF3"/>
<path d="M197.976 290.892C216.907 274.734 222.556 284.544 239.065 270.454C259.02 293.831 256.244 328.959 232.868 348.914C209.49 368.869 174.362 366.09 154.41 342.715C187.424 314.532 181.043 305.343 197.976 290.892Z" fill="#FFFDF3"/>
<path d="M271.251 321.965C261.731 298.968 272.807 296.624 264.508 276.571C292.907 264.818 325.459 278.312 337.213 306.711C348.966 335.11 335.47 367.661 307.071 379.415C290.474 339.306 279.765 342.535 271.251 321.965Z" fill="#FFFDF3"/>
<path d="M323.45 261.876C298.637 263.823 299.828 252.563 278.193 254.261C275.79 223.622 298.684 196.831 329.325 194.426C359.965 192.027 386.755 214.919 389.157 245.561C345.88 248.954 345.641 260.137 323.45 261.876Z" fill="#FFFDF3"/>
</g>
<defs>
<clipPath id="clip0_1193_102598">
<rect width="512" height="512" fill="white"/>
</clipPath>
</defs>
</svg>
