<svg width="512" height="512" viewBox="0 0 512 512" fill="none" xmlns="http://www.w3.org/2000/svg">
<g clip-path="url(#clip0_1193_102821)">
<path d="M256 512C397.385 512 512 397.385 512 256C512 114.615 397.385 0 256 0C114.615 0 0 114.615 0 256C0 397.385 114.615 512 256 512Z" fill="#FFFDF3"/>
<path d="M244.871 256H512.001C512.001 232.893 508.921 210.511 503.182 189.217H244.871V256Z" fill="#D80027"/>
<path d="M244.871 122.435H474.427C458.756 96.8629 438.721 74.2599 415.358 55.6519H244.871V122.435Z" fill="#D80027"/>
<path d="M256.002 512C316.251 512 371.628 491.176 415.359 456.348H96.6445C140.376 491.176 195.753 512 256.002 512V512Z" fill="#D80027"/>
<path d="M37.5753 389.565H474.427C487.008 369.037 496.764 346.596 503.182 322.782H8.82031C15.2373 346.596 24.9943 369.037 37.5753 389.565V389.565Z" fill="#D80027"/>
<path d="M256 256C256 114.616 256 97.948 256 0C114.616 0 0 114.616 0 256H256Z" fill="#0052B4"/>
<path d="M170.234 219.13C135.272 219.13 106.93 190.787 106.93 155.826C106.93 120.865 135.273 92.5221 170.234 92.5221C181.135 92.5221 191.392 95.2791 200.347 100.131C186.299 86.3941 167.087 77.9141 145.886 77.9141C102.857 77.9141 67.9727 112.797 67.9727 155.827C67.9727 198.857 102.857 233.74 145.886 233.74C167.087 233.74 186.299 225.26 200.347 211.523C191.392 216.373 181.136 219.13 170.234 219.13V219.13Z" fill="#FFDA44"/>
<path d="M188.074 111.304L199.313 134.806L224.694 128.942L213.328 152.381L233.74 168.568L208.326 174.297L208.397 200.348L188.074 184.05L167.75 200.348L167.82 174.297L142.406 168.568L162.818 152.381L151.451 128.942L176.834 134.806L188.074 111.304Z" fill="#FFDA44"/>
</g>
<defs>
<clipPath id="clip0_1193_102821">
<rect width="512" height="512" fill="white"/>
</clipPath>
</defs>
</svg>
