<svg width="512" height="512" viewBox="0 0 512 512" fill="none" xmlns="http://www.w3.org/2000/svg">
<g clip-path="url(#clip0_1193_103351)">
<path d="M233.739 278.261C233.739 278.261 75.1305 74.945 74.9805 74.981C121.306 28.654 185.307 0 256 0C397.384 0 512 114.616 512 256L233.739 278.261Z" fill="#D80027"/>
<path d="M233.739 256C233.739 256 75.1305 437.055 74.9805 437.019C121.306 483.346 185.307 512 256 512C397.384 512 512 397.384 512 256H233.739Z" fill="#0052B4"/>
<path d="M74.9805 74.98C-24.9935 174.954 -24.9935 337.045 74.9805 437.02C116.293 395.707 156.026 355.974 256 256L74.9805 74.98Z" fill="#FFFDF3"/>
<path d="M28.0592 256.001C27.9192 257.839 27.8242 259.691 27.8242 261.565C27.8242 301.521 60.2162 333.913 100.172 333.913C140.128 333.913 172.52 301.521 172.52 261.565C172.52 259.691 172.425 257.838 172.285 256.001H28.0592Z" fill="#FFDA44"/>
<path d="M100.171 222.609C112.466 222.609 122.432 212.642 122.432 200.348C122.432 188.054 112.466 178.087 100.171 178.087C87.8767 178.087 77.9102 188.054 77.9102 200.348C77.9102 212.642 87.8767 222.609 100.171 222.609Z" fill="#FFDA44"/>
<path d="M50.0859 194.783V267.131C50.0859 305.471 100.173 317.218 100.173 317.218C100.173 317.218 150.26 305.471 150.26 267.131V194.783H50.0859Z" fill="#D80027"/>
<path d="M100.199 293.92C90.9067 290.576 72.3477 282.03 72.3477 267.13V217.043H128.001V267.13C128.001 282.079 109.444 290.604 100.199 293.92V293.92Z" fill="#338AF3"/>
<path d="M111.303 244.87V233.739L100.173 228.174L89.0416 233.739V244.87L83.4766 250.435V272.696H116.869V250.435L111.303 244.87Z" fill="#F3F3F3"/>
</g>
<defs>
<clipPath id="clip0_1193_103351">
<rect width="512" height="512" fill="white"/>
</clipPath>
</defs>
</svg>
